<svg xmlns="http://www.w3.org/2000/svg" viewBox="0 0 64 64" width="64" height="64">
  <defs>
    <linearGradient id="bg" x1="0" y1="0" x2="1" y2="1">
      <stop offset="0%" stop-color="#e10600"/>
      <stop offset="100%" stop-color="#9a0500"/>
    </linearGradient>
  </defs>
  <rect x="2" y="2" width="60" height="60" rx="14" ry="14" fill="url(#bg)"/>
  <g transform="translate(14, 16)">
    <rect x="0" y="0" width="3" height="34" fill="#fff" rx="1.5"/>
    <g transform="translate(4, 2)">
      <rect x="0"  y="0"  width="8" height="8" fill="#fff"/>
      <rect x="8"  y="0"  width="8" height="8" fill="#0a0a0d"/>
      <rect x="16" y="0"  width="8" height="8" fill="#fff"/>
      <rect x="24" y="0"  width="8" height="8" fill="#0a0a0d"/>
      <rect x="0"  y="8"  width="8" height="8" fill="#0a0a0d"/>
      <rect x="8"  y="8"  width="8" height="8" fill="#fff"/>
      <rect x="16" y="8"  width="8" height="8" fill="#0a0a0d"/>
      <rect x="24" y="8"  width="8" height="8" fill="#fff"/>
      <rect x="0"  y="16" width="8" height="8" fill="#fff"/>
      <rect x="8"  y="16" width="8" height="8" fill="#0a0a0d"/>
      <rect x="16" y="16" width="8" height="8" fill="#fff"/>
      <rect x="24" y="16" width="8" height="8" fill="#0a0a0d"/>
    </g>
  </g>
</svg>
